<?xml version="1.0" standalone="no"?>
<!DOCTYPE svg PUBLIC "-//W3C//DTD SVG 20010904//EN"
 "http://www.w3.org/TR/2001/REC-SVG-20010904/DTD/svg10.dtd">
<svg version="1.0" xmlns="http://www.w3.org/2000/svg"
 width="500.000000pt" height="500.000000pt" viewBox="0 0 500.000000 500.000000"
 preserveAspectRatio="xMidYMid meet">
<metadata>
Created by potrace 1.14, written by Peter Selinger 2001-2017
</metadata>
<g transform="translate(0.000000,500.000000) scale(0.100000,-0.100000)"
fill="#000000" stroke="none">
<path d="M3058 4485 c-159 -32 -255 -107 -301 -237 -9 -24 -13 -388 -17 -1418
l-5 -1385 -23 -80 c-28 -102 -80 -207 -132 -266 -154 -179 -467 -230 -704
-115 -87 41 -145 90 -195 165 -86 128 -110 218 -118 446 -7 212 -15 233 -100
265 -47 18 -73 21 -139 18 -93 -5 -135 -24 -173 -79 -22 -33 -23 -38 -18 -189
12 -373 120 -647 332 -848 140 -134 313 -216 523 -247 123 -19 201 -19 326 0
134 20 225 49 327 102 244 128 404 351 488 678 34 130 35 179 40 1570 l6 1390
24 42 c47 83 130 117 269 111 91 -3 94 6 11 42 -111 47 -285 62 -421 35z"/>
<path d="M3367 4327 c-26 -8 -57 -22 -68 -33 -51 -45 -49 7 -49 -1376 0 -816
-4 -1334 -10 -1403 -34 -357 -146 -624 -338 -807 -54 -51 -150 -119 -248 -175
l-39 -22 40 6 c22 2 82 16 133 29 410 105 685 361 817 757 73 220 70 160 70
1624 0 1308 0 1312 -21 1339 -11 15 -37 36 -57 47 -47 24 -166 31 -230 14z"/>
<path d="M1435 2025 c-64 -14 -123 -36 -154 -57 -16 -11 -6 -13 68 -13 107 0
168 -17 220 -62 57 -49 71 -102 71 -275 0 -87 6 -168 16 -216 51 -253 233
-402 489 -402 152 0 268 44 356 133 49 49 112 159 124 214 l6 32 -72 -37 c-69
-36 -75 -37 -178 -37 -99 0 -110 2 -161 30 -61 34 -114 97 -130 155 -6 21 -15
93 -20 160 -7 93 -14 133 -33 174 -51 110 -134 172 -272 201 -85 18 -248 18
-330 0z"/>
</g>
</svg>
